<svg xmlns="http://www.w3.org/2000/svg" xmlns:xlink="http://www.w3.org/1999/xlink" width="1080" zoomAndPan="magnify" viewBox="0 0 810 1439.999935" height="1920" preserveAspectRatio="xMidYMid meet" version="1.0"><defs><clipPath id="0475b7921c"><path d="M 460 0.00390625 L 744 0.00390625 L 744 673 L 460 673 Z M 460 0.00390625 " clip-rule="nonzero"/></clipPath><clipPath id="aae6d25892"><path d="M 273 0.00390625 L 712 0.00390625 L 712 424 L 273 424 Z M 273 0.00390625 " clip-rule="nonzero"/></clipPath><clipPath id="1d04a80ed1"><path d="M 542 0.00390625 L 780 0.00390625 L 780 604 L 542 604 Z M 542 0.00390625 " clip-rule="nonzero"/></clipPath><clipPath id="7c8dea131b"><path d="M 649 243 L 809.996094 243 L 809.996094 925 L 649 925 Z M 649 243 " clip-rule="nonzero"/></clipPath><clipPath id="de7b56156a"><path d="M 708 300 L 809.996094 300 L 809.996094 831 L 708 831 Z M 708 300 " clip-rule="nonzero"/></clipPath><clipPath id="8b32540072"><path d="M 181 0.00390625 L 678 0.00390625 L 678 163 L 181 163 Z M 181 0.00390625 " clip-rule="nonzero"/></clipPath><clipPath id="c741f20058"><path d="M 677 912 L 701 912 L 701 935.253906 L 677 935.253906 Z M 677 912 " clip-rule="nonzero"/></clipPath><clipPath id="0496f61d51"><path d="M 452.386719 660.453125 L 475.636719 660.453125 L 475.636719 683.703125 L 452.386719 683.703125 Z M 452.386719 660.453125 " clip-rule="nonzero"/></clipPath><clipPath id="636addfc81"><path d="M 464.011719 660.453125 C 457.59375 660.453125 452.386719 665.660156 452.386719 672.078125 C 452.386719 678.5 457.59375 683.703125 464.011719 683.703125 C 470.433594 683.703125 475.636719 678.5 475.636719 672.078125 C 475.636719 665.660156 470.433594 660.453125 464.011719 660.453125 Z M 464.011719 660.453125 " clip-rule="nonzero"/></clipPath><clipPath id="de6db98cd1"><path d="M 0.386719 0.453125 L 23.636719 0.453125 L 23.636719 23.703125 L 0.386719 23.703125 Z M 0.386719 0.453125 " clip-rule="nonzero"/></clipPath><clipPath id="99a8662fa4"><path d="M 12.011719 0.453125 C 5.59375 0.453125 0.386719 5.660156 0.386719 12.078125 C 0.386719 18.5 5.59375 23.703125 12.011719 23.703125 C 18.433594 23.703125 23.636719 18.5 23.636719 12.078125 C 23.636719 5.660156 18.433594 0.453125 12.011719 0.453125 Z M 12.011719 0.453125 " clip-rule="nonzero"/></clipPath><clipPath id="f2a8aec89e"><rect x="0" width="24" y="0" height="24"/></clipPath></defs><path fill="#286291" d="M 11.488281 196.480469 C 10.738281 196.480469 10 196.40625 9.265625 196.261719 C 8.53125 196.113281 7.820312 195.898438 7.128906 195.613281 C 6.4375 195.324219 5.78125 194.976562 5.160156 194.558594 C 4.539062 194.144531 3.964844 193.671875 3.433594 193.144531 C 2.90625 192.613281 2.433594 192.039062 2.019531 191.417969 C 1.601562 190.796875 1.253906 190.140625 0.964844 189.449219 C 0.679688 188.757812 0.464844 188.046875 0.320312 187.3125 C 0.171875 186.582031 0.0976562 185.839844 0.0976562 185.09375 C 0.0976562 184.34375 0.171875 183.605469 0.320312 182.871094 C 0.464844 182.136719 0.679688 181.425781 0.964844 180.734375 C 1.253906 180.042969 1.601562 179.386719 2.019531 178.765625 C 2.433594 178.144531 2.90625 177.570312 3.433594 177.039062 C 3.964844 176.511719 4.539062 176.039062 5.160156 175.625 C 5.78125 175.207031 6.4375 174.859375 7.128906 174.570312 C 7.820312 174.285156 8.53125 174.070312 9.265625 173.925781 C 10 173.777344 10.738281 173.707031 11.488281 173.707031 C 12.234375 173.707031 12.976562 173.777344 13.707031 173.925781 C 14.441406 174.070312 15.152344 174.285156 15.84375 174.570312 C 16.535156 174.859375 17.191406 175.207031 17.8125 175.625 C 18.433594 176.039062 19.007812 176.511719 19.539062 177.039062 C 20.066406 177.570312 20.539062 178.144531 20.953125 178.765625 C 21.371094 179.386719 21.71875 180.042969 22.007812 180.734375 C 22.292969 181.425781 22.507812 182.136719 22.65625 182.871094 C 22.800781 183.605469 22.875 184.34375 22.875 185.09375 C 22.875 185.839844 22.800781 186.582031 22.65625 187.3125 C 22.507812 188.046875 22.292969 188.757812 22.007812 189.449219 C 21.71875 190.140625 21.371094 190.796875 20.953125 191.417969 C 20.539062 192.039062 20.066406 192.613281 19.539062 193.144531 C 19.007812 193.671875 18.433594 194.144531 17.8125 194.558594 C 17.191406 194.976562 16.535156 195.324219 15.84375 195.613281 C 15.152344 195.898438 14.441406 196.113281 13.707031 196.261719 C 12.976562 196.40625 12.234375 196.480469 11.488281 196.480469 Z M 11.488281 196.480469 " fill-opacity="1" fill-rule="nonzero"/><g clip-path="url(#0475b7921c)"><path fill="#edaf00" d="M 460.761719 672.085938 L 460.761719 551.101562 L 494.921875 518.363281 L 494.921875 353.203125 L 624.957031 226.066406 L 701.71875 226.066406 L 736.996094 186.71875 L 736.996094 0.00390625 L 743.351562 0.00390625 L 743.351562 189.160156 L 704.5625 232.417969 L 627.550781 232.417969 L 501.277344 355.894531 L 501.277344 521.109375 L 467.117188 553.84375 L 467.117188 672.085938 Z M 460.761719 672.085938 " fill-opacity="1" fill-rule="nonzero"/></g><g clip-path="url(#aae6d25892)"><path fill="#286291" d="M 273.589844 421.929688 L 352.738281 340.390625 L 456.238281 340.390625 L 611.433594 183.769531 L 684.027344 183.769531 L 708.886719 156.117188 L 708.886719 0.00390625 L 711.628906 0.00390625 L 711.628906 157.132812 L 685.246094 186.464844 L 612.605469 186.464844 L 457.355469 343.085938 L 353.855469 343.085938 L 275.519531 423.863281 Z M 273.589844 421.929688 " fill-opacity="1" fill-rule="nonzero"/></g><g clip-path="url(#1d04a80ed1)"><path fill="#286291" d="M 542.300781 603.714844 L 542.300781 368.25 L 637.054688 273.441406 L 723.933594 273.441406 L 777.257812 222.964844 L 777.257812 0.00390625 L 779.953125 0.00390625 L 779.953125 224.132812 L 725.050781 276.1875 L 638.226562 276.1875 L 545.046875 369.367188 L 545.046875 603.714844 Z M 542.300781 603.714844 " fill-opacity="1" fill-rule="nonzero"/></g><g clip-path="url(#7c8dea131b)"><path fill="#286291" d="M 649.105469 528.835938 L 649.105469 373.941406 L 709.699219 310.449219 L 739.589844 310.449219 L 807.960938 243.957031 L 809.894531 245.890625 L 740.707031 313.195312 L 710.867188 313.195312 L 651.796875 375.0625 L 651.796875 527.714844 L 688.855469 566.148438 L 690.28125 924.125 L 687.535156 924.125 L 686.109375 567.265625 Z M 649.105469 528.835938 " fill-opacity="1" fill-rule="nonzero"/></g><g clip-path="url(#de7b56156a)"><path fill="#286291" d="M 708.886719 488.980469 L 708.886719 395.242188 L 808.011719 300.894531 L 809.894531 302.875 L 711.628906 396.410156 L 711.628906 487.863281 L 760.941406 537.679688 L 760.941406 830.132812 L 758.246094 830.132812 L 758.246094 538.796875 Z M 708.886719 488.980469 " fill-opacity="1" fill-rule="nonzero"/></g><g clip-path="url(#8b32540072)"><path fill="#286291" d="M 181.984375 162.265625 L 181.984375 159.523438 L 273.996094 159.523438 L 359.449219 81.238281 L 544.230469 81.238281 L 602.640625 142.441406 L 660.542969 142.441406 L 674.722656 127.597656 L 674.722656 0.00390625 L 677.46875 0.00390625 L 677.46875 128.714844 L 661.710938 145.1875 L 601.472656 145.1875 L 543.0625 83.929688 L 360.515625 83.929688 L 275.0625 162.265625 Z M 181.984375 162.265625 " fill-opacity="1" fill-rule="nonzero"/></g><path fill="#286291" d="M 137.859375 192.15625 L 137.859375 189.464844 L 293.921875 189.464844 L 375.105469 112.550781 L 525.777344 112.550781 L 568.886719 159.980469 L 566.855469 161.808594 L 524.558594 115.296875 L 376.171875 115.296875 L 295.042969 192.15625 Z M 137.859375 192.15625 " fill-opacity="1" fill-rule="nonzero"/><path fill="#286291" d="M 37.207031 319.449219 L 137.300781 216.507812 L 308.15625 216.507812 L 382.171875 141.019531 L 502.394531 141.019531 L 502.394531 143.761719 L 383.339844 143.761719 L 309.273438 219.203125 L 138.421875 219.203125 L 39.140625 321.328125 Z M 37.207031 319.449219 " fill-opacity="1" fill-rule="nonzero"/><path fill="#286291" d="M 31.871094 120.074219 L 118.746094 31.011719 L 309.988281 31.011719 L 332.40625 53.480469 L 531.574219 53.480469 L 531.574219 56.175781 L 331.285156 56.175781 L 308.867188 33.757812 L 119.917969 33.757812 L 33.804688 122.007812 Z M 31.871094 120.074219 " fill-opacity="1" fill-rule="nonzero"/><path fill="#286291" d="M 10.519531 184.125 L 142.285156 54.5 L 282.230469 59.886719 L 282.128906 62.582031 L 143.351562 57.292969 L 12.453125 186.109375 Z M 10.519531 184.125 " fill-opacity="1" fill-rule="nonzero"/><path fill="#286291" d="M 32.835938 132.425781 C 32.089844 132.425781 31.347656 132.355469 30.617188 132.207031 C 29.882812 132.0625 29.171875 131.847656 28.480469 131.5625 C 27.789062 131.273438 27.132812 130.921875 26.511719 130.507812 C 25.890625 130.09375 25.3125 129.621094 24.785156 129.09375 C 24.257812 128.5625 23.785156 127.988281 23.367188 127.367188 C 22.953125 126.746094 22.601562 126.089844 22.316406 125.398438 C 22.03125 124.707031 21.816406 123.996094 21.667969 123.261719 C 21.523438 122.527344 21.449219 121.789062 21.449219 121.039062 C 21.449219 120.292969 21.523438 119.550781 21.667969 118.820312 C 21.816406 118.085938 22.03125 117.375 22.316406 116.683594 C 22.601562 115.992188 22.953125 115.335938 23.371094 114.714844 C 23.785156 114.09375 24.257812 113.515625 24.785156 112.988281 C 25.3125 112.460938 25.890625 111.988281 26.511719 111.574219 C 27.132812 111.15625 27.789062 110.804688 28.480469 110.519531 C 29.171875 110.234375 29.882812 110.019531 30.617188 109.871094 C 31.347656 109.726562 32.089844 109.652344 32.835938 109.652344 C 33.585938 109.652344 34.324219 109.726562 35.058594 109.871094 C 35.792969 110.019531 36.503906 110.234375 37.195312 110.519531 C 37.886719 110.804688 38.542969 111.15625 39.164062 111.574219 C 39.785156 111.988281 40.359375 112.460938 40.890625 112.988281 C 41.417969 113.515625 41.890625 114.09375 42.304688 114.714844 C 42.71875 115.335938 43.070312 115.992188 43.355469 116.683594 C 43.644531 117.375 43.859375 118.085938 44.003906 118.820312 C 44.152344 119.550781 44.222656 120.292969 44.222656 121.039062 C 44.222656 121.789062 44.152344 122.527344 44.003906 123.261719 C 43.859375 123.996094 43.644531 124.707031 43.355469 125.398438 C 43.070312 126.089844 42.71875 126.746094 42.304688 127.367188 C 41.890625 127.988281 41.417969 128.5625 40.890625 129.09375 C 40.359375 129.621094 39.785156 130.09375 39.164062 130.507812 C 38.542969 130.921875 37.886719 131.273438 37.195312 131.5625 C 36.503906 131.847656 35.792969 132.0625 35.058594 132.207031 C 34.324219 132.355469 33.585938 132.425781 32.835938 132.425781 Z M 32.835938 132.425781 " fill-opacity="1" fill-rule="nonzero"/><path fill="#286291" d="M 38.175781 334.597656 C 37.425781 334.597656 36.6875 334.523438 35.953125 334.378906 C 35.21875 334.230469 34.507812 334.015625 33.816406 333.730469 C 33.125 333.441406 32.46875 333.09375 31.847656 332.675781 C 31.226562 332.261719 30.652344 331.789062 30.121094 331.261719 C 29.59375 330.734375 29.121094 330.15625 28.707031 329.535156 C 28.292969 328.914062 27.941406 328.257812 27.65625 327.566406 C 27.367188 326.875 27.152344 326.164062 27.007812 325.429688 C 26.859375 324.699219 26.789062 323.957031 26.789062 323.210938 C 26.789062 322.460938 26.859375 321.722656 27.007812 320.988281 C 27.152344 320.253906 27.367188 319.542969 27.65625 318.851562 C 27.941406 318.160156 28.292969 317.503906 28.707031 316.882812 C 29.121094 316.261719 29.59375 315.6875 30.121094 315.15625 C 30.652344 314.628906 31.226562 314.15625 31.847656 313.742188 C 32.46875 313.324219 33.125 312.976562 33.816406 312.6875 C 34.507812 312.402344 35.21875 312.1875 35.953125 312.042969 C 36.6875 311.894531 37.425781 311.824219 38.175781 311.824219 C 38.921875 311.824219 39.664062 311.894531 40.394531 312.042969 C 41.128906 312.1875 41.839844 312.402344 42.53125 312.6875 C 43.222656 312.976562 43.878906 313.324219 44.5 313.742188 C 45.121094 314.15625 45.699219 314.628906 46.226562 315.15625 C 46.753906 315.6875 47.226562 316.261719 47.640625 316.882812 C 48.058594 317.503906 48.410156 318.160156 48.695312 318.851562 C 48.980469 319.542969 49.195312 320.253906 49.34375 320.988281 C 49.488281 321.722656 49.5625 322.460938 49.5625 323.210938 C 49.5625 323.957031 49.488281 324.699219 49.34375 325.429688 C 49.195312 326.164062 48.980469 326.875 48.695312 327.566406 C 48.410156 328.257812 48.058594 328.914062 47.640625 329.535156 C 47.226562 330.15625 46.753906 330.734375 46.226562 331.261719 C 45.699219 331.789062 45.121094 332.261719 44.5 332.675781 C 43.878906 333.09375 43.222656 333.445312 42.53125 333.730469 C 41.839844 334.015625 41.128906 334.230469 40.394531 334.378906 C 39.664062 334.523438 38.921875 334.597656 38.175781 334.597656 Z M 38.175781 334.597656 " fill-opacity="1" fill-rule="nonzero"/><path fill="#286291" d="M 89.464844 383.753906 C 88.71875 383.753906 87.976562 383.679688 87.246094 383.535156 C 86.511719 383.386719 85.800781 383.171875 85.109375 382.886719 C 84.417969 382.601562 83.761719 382.25 83.140625 381.835938 C 82.519531 381.417969 81.945312 380.945312 81.414062 380.417969 C 80.886719 379.890625 80.414062 379.3125 80 378.691406 C 79.582031 378.070312 79.234375 377.414062 78.945312 376.722656 C 78.660156 376.03125 78.445312 375.320312 78.296875 374.585938 C 78.152344 373.855469 78.078125 373.113281 78.078125 372.367188 C 78.078125 371.617188 78.152344 370.878906 78.296875 370.144531 C 78.445312 369.410156 78.660156 368.699219 78.945312 368.007812 C 79.234375 367.316406 79.582031 366.660156 80 366.039062 C 80.414062 365.417969 80.886719 364.84375 81.414062 364.316406 C 81.945312 363.785156 82.519531 363.3125 83.140625 362.898438 C 83.761719 362.484375 84.417969 362.132812 85.109375 361.847656 C 85.800781 361.558594 86.511719 361.34375 87.246094 361.199219 C 87.976562 361.050781 88.71875 360.980469 89.464844 360.980469 C 90.214844 360.980469 90.953125 361.050781 91.6875 361.199219 C 92.421875 361.34375 93.132812 361.558594 93.824219 361.847656 C 94.515625 362.132812 95.171875 362.484375 95.792969 362.898438 C 96.414062 363.3125 96.988281 363.785156 97.519531 364.316406 C 98.046875 364.84375 98.519531 365.417969 98.933594 366.039062 C 99.351562 366.660156 99.699219 367.316406 99.988281 368.007812 C 100.273438 368.699219 100.488281 369.410156 100.632812 370.144531 C 100.78125 370.878906 100.851562 371.617188 100.851562 372.367188 C 100.851562 373.113281 100.78125 373.855469 100.632812 374.585938 C 100.488281 375.320312 100.273438 376.03125 99.988281 376.722656 C 99.699219 377.414062 99.351562 378.070312 98.933594 378.691406 C 98.519531 379.3125 98.046875 379.890625 97.519531 380.417969 C 96.988281 380.945312 96.414062 381.417969 95.792969 381.835938 C 95.171875 382.25 94.515625 382.601562 93.824219 382.886719 C 93.132812 383.171875 92.421875 383.386719 91.6875 383.535156 C 90.953125 383.679688 90.214844 383.753906 89.464844 383.753906 Z M 89.464844 383.753906 " fill-opacity="1" fill-rule="nonzero"/><path fill="#286291" d="M 137.859375 202.171875 C 137.113281 202.171875 136.371094 202.097656 135.640625 201.953125 C 134.90625 201.808594 134.195312 201.589844 133.503906 201.304688 C 132.8125 201.019531 132.15625 200.667969 131.535156 200.253906 C 130.914062 199.839844 130.339844 199.367188 129.808594 198.835938 C 129.28125 198.308594 128.808594 197.734375 128.394531 197.113281 C 127.976562 196.488281 127.628906 195.832031 127.339844 195.144531 C 127.054688 194.453125 126.839844 193.742188 126.691406 193.007812 C 126.546875 192.273438 126.472656 191.53125 126.472656 190.785156 C 126.472656 190.039062 126.546875 189.296875 126.691406 188.5625 C 126.839844 187.832031 127.054688 187.117188 127.339844 186.429688 C 127.628906 185.738281 127.976562 185.082031 128.394531 184.460938 C 128.808594 183.835938 129.28125 183.261719 129.808594 182.734375 C 130.339844 182.203125 130.914062 181.734375 131.535156 181.316406 C 132.15625 180.902344 132.8125 180.550781 133.503906 180.265625 C 134.195312 179.980469 134.90625 179.761719 135.640625 179.617188 C 136.371094 179.472656 137.113281 179.398438 137.859375 179.398438 C 138.609375 179.398438 139.347656 179.472656 140.082031 179.617188 C 140.816406 179.761719 141.527344 179.980469 142.21875 180.265625 C 142.910156 180.550781 143.566406 180.902344 144.1875 181.316406 C 144.808594 181.734375 145.382812 182.203125 145.914062 182.734375 C 146.441406 183.261719 146.914062 183.835938 147.328125 184.460938 C 147.746094 185.082031 148.09375 185.738281 148.382812 186.429688 C 148.667969 187.117188 148.882812 187.832031 149.027344 188.5625 C 149.175781 189.296875 149.246094 190.039062 149.246094 190.785156 C 149.246094 191.53125 149.175781 192.273438 149.027344 193.007812 C 148.882812 193.742188 148.667969 194.453125 148.382812 195.144531 C 148.09375 195.832031 147.746094 196.488281 147.328125 197.113281 C 146.914062 197.734375 146.441406 198.308594 145.914062 198.835938 C 145.382812 199.367188 144.808594 199.839844 144.1875 200.253906 C 143.566406 200.667969 142.910156 201.019531 142.21875 201.304688 C 141.527344 201.589844 140.816406 201.808594 140.082031 201.953125 C 139.347656 202.097656 138.609375 202.171875 137.859375 202.171875 Z M 137.859375 202.171875 " fill-opacity="1" fill-rule="nonzero"/><path fill="#286291" d="M 181.984375 172.28125 C 181.238281 172.28125 180.496094 172.207031 179.765625 172.0625 C 179.03125 171.917969 178.320312 171.699219 177.628906 171.414062 C 176.9375 171.128906 176.28125 170.777344 175.660156 170.363281 C 175.039062 169.949219 174.460938 169.476562 173.933594 168.945312 C 173.40625 168.417969 172.933594 167.84375 172.515625 167.222656 C 172.101562 166.597656 171.75 165.941406 171.464844 165.253906 C 171.179688 164.5625 170.964844 163.847656 170.816406 163.117188 C 170.671875 162.382812 170.597656 161.640625 170.597656 160.894531 C 170.597656 160.148438 170.671875 159.40625 170.816406 158.671875 C 170.964844 157.941406 171.179688 157.226562 171.464844 156.539062 C 171.75 155.847656 172.101562 155.191406 172.519531 154.570312 C 172.933594 153.945312 173.40625 153.371094 173.933594 152.84375 C 174.460938 152.3125 175.039062 151.84375 175.660156 151.425781 C 176.28125 151.011719 176.9375 150.660156 177.628906 150.375 C 178.320312 150.089844 179.03125 149.871094 179.765625 149.726562 C 180.496094 149.582031 181.238281 149.507812 181.984375 149.507812 C 182.734375 149.507812 183.472656 149.582031 184.207031 149.726562 C 184.941406 149.871094 185.652344 150.089844 186.34375 150.375 C 187.035156 150.660156 187.691406 151.011719 188.3125 151.425781 C 188.933594 151.84375 189.507812 152.3125 190.039062 152.84375 C 190.566406 153.371094 191.039062 153.945312 191.453125 154.570312 C 191.867188 155.191406 192.21875 155.847656 192.503906 156.539062 C 192.792969 157.226562 193.007812 157.941406 193.152344 158.671875 C 193.300781 159.40625 193.371094 160.148438 193.371094 160.894531 C 193.371094 161.640625 193.300781 162.382812 193.152344 163.117188 C 193.007812 163.847656 192.792969 164.5625 192.503906 165.253906 C 192.21875 165.941406 191.867188 166.597656 191.453125 167.222656 C 191.039062 167.84375 190.566406 168.417969 190.039062 168.945312 C 189.507812 169.476562 188.933594 169.949219 188.3125 170.363281 C 187.691406 170.777344 187.035156 171.128906 186.34375 171.414062 C 185.652344 171.699219 184.941406 171.917969 184.207031 172.0625 C 183.472656 172.207031 182.734375 172.28125 181.984375 172.28125 Z M 181.984375 172.28125 " fill-opacity="1" fill-rule="nonzero"/><path fill="#286291" d="M 502.394531 153.777344 C 501.648438 153.777344 500.90625 153.703125 500.175781 153.558594 C 499.441406 153.414062 498.730469 153.199219 498.039062 152.910156 C 497.347656 152.625 496.691406 152.273438 496.070312 151.859375 C 495.449219 151.445312 494.871094 150.972656 494.34375 150.441406 C 493.816406 149.914062 493.34375 149.339844 492.925781 148.71875 C 492.511719 148.09375 492.160156 147.4375 491.875 146.75 C 491.589844 146.058594 491.375 145.347656 491.226562 144.613281 C 491.082031 143.878906 491.007812 143.140625 491.007812 142.390625 C 491.007812 141.644531 491.082031 140.902344 491.226562 140.167969 C 491.375 139.4375 491.589844 138.722656 491.875 138.035156 C 492.160156 137.34375 492.511719 136.6875 492.925781 136.066406 C 493.34375 135.441406 493.816406 134.867188 494.34375 134.339844 C 494.871094 133.8125 495.449219 133.339844 496.070312 132.921875 C 496.691406 132.507812 497.347656 132.15625 498.039062 131.871094 C 498.730469 131.585938 499.441406 131.367188 500.175781 131.222656 C 500.90625 131.078125 501.648438 131.003906 502.394531 131.003906 C 503.144531 131.003906 503.882812 131.078125 504.617188 131.222656 C 505.351562 131.367188 506.0625 131.585938 506.753906 131.871094 C 507.445312 132.15625 508.101562 132.507812 508.722656 132.921875 C 509.34375 133.339844 509.917969 133.808594 510.445312 134.339844 C 510.976562 134.867188 511.449219 135.441406 511.863281 136.066406 C 512.277344 136.6875 512.628906 137.34375 512.914062 138.035156 C 513.203125 138.722656 513.417969 139.4375 513.5625 140.167969 C 513.710938 140.902344 513.78125 141.644531 513.78125 142.390625 C 513.78125 143.140625 513.710938 143.878906 513.5625 144.613281 C 513.417969 145.347656 513.203125 146.058594 512.914062 146.75 C 512.628906 147.4375 512.277344 148.09375 511.863281 148.71875 C 511.449219 149.339844 510.976562 149.914062 510.445312 150.441406 C 509.917969 150.972656 509.34375 151.445312 508.722656 151.859375 C 508.101562 152.273438 507.445312 152.625 506.753906 152.910156 C 506.0625 153.199219 505.351562 153.414062 504.617188 153.558594 C 503.882812 153.703125 503.144531 153.777344 502.394531 153.777344 Z M 502.394531 153.777344 " fill-opacity="1" fill-rule="nonzero"/><path fill="#286291" d="M 482.417969 242.789062 C 481.667969 242.789062 480.929688 242.714844 480.195312 242.570312 C 479.460938 242.425781 478.75 242.207031 478.058594 241.921875 C 477.367188 241.636719 476.714844 241.285156 476.089844 240.871094 C 475.46875 240.453125 474.894531 239.984375 474.367188 239.453125 C 473.835938 238.925781 473.363281 238.351562 472.949219 237.726562 C 472.535156 237.105469 472.183594 236.449219 471.898438 235.761719 C 471.609375 235.070312 471.394531 234.355469 471.25 233.625 C 471.101562 232.890625 471.03125 232.148438 471.03125 231.402344 C 471.03125 230.65625 471.101562 229.914062 471.25 229.179688 C 471.394531 228.449219 471.609375 227.734375 471.898438 227.042969 C 472.183594 226.355469 472.535156 225.699219 472.949219 225.074219 C 473.363281 224.453125 473.835938 223.878906 474.367188 223.351562 C 474.894531 222.820312 475.46875 222.351562 476.089844 221.933594 C 476.714844 221.519531 477.367188 221.167969 478.058594 220.882812 C 478.75 220.597656 479.460938 220.378906 480.195312 220.234375 C 480.929688 220.089844 481.667969 220.015625 482.417969 220.015625 C 483.164062 220.015625 483.90625 220.089844 484.640625 220.234375 C 485.371094 220.378906 486.085938 220.597656 486.773438 220.882812 C 487.464844 221.167969 488.121094 221.519531 488.742188 221.933594 C 489.367188 222.351562 489.941406 222.820312 490.46875 223.351562 C 490.996094 223.878906 491.46875 224.453125 491.886719 225.074219 C 492.300781 225.699219 492.652344 226.355469 492.9375 227.042969 C 493.222656 227.734375 493.441406 228.449219 493.585938 229.179688 C 493.730469 229.914062 493.804688 230.65625 493.804688 231.402344 C 493.804688 232.148438 493.730469 232.890625 493.585938 233.625 C 493.441406 234.355469 493.222656 235.070312 492.9375 235.761719 C 492.652344 236.449219 492.300781 237.105469 491.886719 237.726562 C 491.46875 238.351562 490.996094 238.925781 490.46875 239.453125 C 489.941406 239.984375 489.367188 240.453125 488.742188 240.871094 C 488.121094 241.285156 487.464844 241.636719 486.773438 241.921875 C 486.085938 242.207031 485.371094 242.425781 484.640625 242.570312 C 483.90625 242.714844 483.164062 242.789062 482.417969 242.789062 Z M 482.417969 242.789062 " fill-opacity="1" fill-rule="nonzero"/><path fill="#286291" d="M 567.871094 172.28125 C 567.121094 172.28125 566.382812 172.207031 565.648438 172.0625 C 564.914062 171.917969 564.203125 171.699219 563.511719 171.414062 C 562.820312 171.128906 562.164062 170.777344 561.542969 170.363281 C 560.921875 169.949219 560.347656 169.476562 559.820312 168.945312 C 559.289062 168.417969 558.816406 167.84375 558.402344 167.222656 C 557.988281 166.597656 557.636719 165.941406 557.351562 165.253906 C 557.0625 164.5625 556.847656 163.847656 556.703125 163.117188 C 556.554688 162.382812 556.484375 161.640625 556.484375 160.894531 C 556.484375 160.148438 556.554688 159.40625 556.703125 158.671875 C 556.847656 157.941406 557.0625 157.226562 557.351562 156.539062 C 557.636719 155.847656 557.988281 155.191406 558.402344 154.570312 C 558.816406 153.945312 559.289062 153.371094 559.820312 152.84375 C 560.347656 152.3125 560.921875 151.84375 561.542969 151.425781 C 562.164062 151.011719 562.820312 150.660156 563.511719 150.375 C 564.203125 150.089844 564.914062 149.871094 565.648438 149.726562 C 566.382812 149.582031 567.121094 149.507812 567.871094 149.507812 C 568.617188 149.507812 569.359375 149.582031 570.089844 149.726562 C 570.824219 149.871094 571.535156 150.089844 572.226562 150.375 C 572.917969 150.660156 573.574219 151.011719 574.195312 151.425781 C 574.816406 151.84375 575.394531 152.3125 575.921875 152.84375 C 576.449219 153.371094 576.921875 153.945312 577.339844 154.570312 C 577.753906 155.191406 578.105469 155.847656 578.390625 156.539062 C 578.675781 157.226562 578.890625 157.941406 579.039062 158.671875 C 579.183594 159.40625 579.257812 160.148438 579.257812 160.894531 C 579.257812 161.640625 579.183594 162.382812 579.039062 163.117188 C 578.890625 163.847656 578.675781 164.5625 578.390625 165.253906 C 578.105469 165.941406 577.753906 166.597656 577.339844 167.222656 C 576.921875 167.84375 576.449219 168.417969 575.921875 168.945312 C 575.394531 169.476562 574.816406 169.949219 574.195312 170.363281 C 573.574219 170.777344 572.917969 171.128906 572.226562 171.414062 C 571.539062 171.699219 570.824219 171.917969 570.089844 172.0625 C 569.359375 172.207031 568.617188 172.28125 567.871094 172.28125 Z M 567.871094 172.28125 " fill-opacity="1" fill-rule="nonzero"/><path fill="#286291" d="M 274.554688 434.28125 C 273.808594 434.28125 273.066406 434.210938 272.332031 434.0625 C 271.601562 433.917969 270.886719 433.703125 270.199219 433.417969 C 269.507812 433.128906 268.851562 432.777344 268.230469 432.363281 C 267.605469 431.949219 267.03125 431.476562 266.503906 430.949219 C 265.976562 430.417969 265.503906 429.84375 265.085938 429.222656 C 264.671875 428.601562 264.320312 427.945312 264.035156 427.253906 C 263.75 426.5625 263.53125 425.851562 263.386719 425.117188 C 263.242188 424.382812 263.167969 423.644531 263.167969 422.894531 C 263.167969 422.148438 263.242188 421.40625 263.386719 420.675781 C 263.53125 419.941406 263.75 419.230469 264.035156 418.539062 C 264.320312 417.847656 264.671875 417.191406 265.085938 416.570312 C 265.503906 415.949219 265.976562 415.371094 266.503906 414.84375 C 267.03125 414.316406 267.605469 413.84375 268.230469 413.429688 C 268.851562 413.011719 269.507812 412.660156 270.199219 412.375 C 270.886719 412.089844 271.601562 411.875 272.332031 411.726562 C 273.066406 411.582031 273.808594 411.507812 274.554688 411.507812 C 275.300781 411.507812 276.042969 411.582031 276.777344 411.726562 C 277.511719 411.875 278.222656 412.089844 278.914062 412.375 C 279.601562 412.660156 280.257812 413.011719 280.882812 413.429688 C 281.503906 413.84375 282.078125 414.316406 282.605469 414.84375 C 283.136719 415.371094 283.609375 415.949219 284.023438 416.570312 C 284.4375 417.191406 284.789062 417.847656 285.074219 418.539062 C 285.363281 419.230469 285.578125 419.941406 285.722656 420.675781 C 285.867188 421.40625 285.941406 422.148438 285.941406 422.894531 C 285.941406 423.644531 285.867188 424.382812 285.722656 425.117188 C 285.578125 425.851562 285.363281 426.5625 285.074219 427.253906 C 284.789062 427.945312 284.4375 428.601562 284.023438 429.222656 C 283.609375 429.84375 283.136719 430.417969 282.605469 430.949219 C 282.078125 431.476562 281.503906 431.949219 280.882812 432.363281 C 280.257812 432.777344 279.601562 433.128906 278.914062 433.417969 C 278.222656 433.703125 277.511719 433.917969 276.777344 434.0625 C 276.042969 434.210938 275.300781 434.28125 274.554688 434.28125 Z M 274.554688 434.28125 " fill-opacity="1" fill-rule="nonzero"/><path fill="#286291" d="M 463.914062 683.472656 C 463.164062 683.472656 462.425781 683.402344 461.691406 683.253906 C 460.957031 683.109375 460.246094 682.894531 459.554688 682.605469 C 458.867188 682.320312 458.210938 681.96875 457.585938 681.554688 C 456.964844 681.140625 456.390625 680.667969 455.863281 680.136719 C 455.332031 679.609375 454.859375 679.035156 454.445312 678.414062 C 454.03125 677.792969 453.679688 677.136719 453.394531 676.445312 C 453.109375 675.753906 452.890625 675.042969 452.746094 674.308594 C 452.601562 673.574219 452.527344 672.835938 452.527344 672.085938 C 452.527344 671.339844 452.601562 670.597656 452.746094 669.863281 C 452.890625 669.132812 453.109375 668.417969 453.394531 667.730469 C 453.679688 667.039062 454.03125 666.382812 454.445312 665.761719 C 454.859375 665.140625 455.332031 664.5625 455.863281 664.035156 C 456.390625 663.507812 456.964844 663.035156 457.585938 662.617188 C 458.210938 662.203125 458.867188 661.851562 459.554688 661.566406 C 460.246094 661.28125 460.957031 661.0625 461.691406 660.917969 C 462.425781 660.773438 463.164062 660.699219 463.914062 660.699219 C 464.660156 660.699219 465.402344 660.773438 466.136719 660.917969 C 466.867188 661.0625 467.582031 661.28125 468.269531 661.566406 C 468.960938 661.851562 469.617188 662.203125 470.238281 662.617188 C 470.863281 663.035156 471.4375 663.507812 471.964844 664.035156 C 472.492188 664.5625 472.964844 665.136719 473.382812 665.761719 C 473.796875 666.382812 474.148438 667.039062 474.433594 667.730469 C 474.71875 668.417969 474.9375 669.132812 475.082031 669.863281 C 475.226562 670.597656 475.300781 671.339844 475.300781 672.085938 C 475.300781 672.835938 475.226562 673.574219 475.082031 674.308594 C 474.9375 675.042969 474.71875 675.753906 474.433594 676.445312 C 474.148438 677.136719 473.796875 677.792969 473.382812 678.414062 C 472.964844 679.035156 472.492188 679.609375 471.964844 680.136719 C 471.4375 680.667969 470.863281 681.140625 470.238281 681.554688 C 469.617188 681.96875 468.960938 682.320312 468.269531 682.605469 C 467.582031 682.894531 466.867188 683.109375 466.136719 683.253906 C 465.402344 683.402344 464.660156 683.472656 463.914062 683.472656 Z M 463.914062 683.472656 " fill-opacity="1" fill-rule="nonzero"/><path fill="#286291" d="M 543.671875 615.101562 C 542.925781 615.101562 542.183594 615.027344 541.453125 614.882812 C 540.71875 614.738281 540.007812 614.519531 539.316406 614.234375 C 538.625 613.949219 537.96875 613.597656 537.347656 613.183594 C 536.726562 612.765625 536.148438 612.292969 535.621094 611.765625 C 535.09375 611.238281 534.621094 610.664062 534.207031 610.039062 C 533.789062 609.417969 533.4375 608.761719 533.152344 608.070312 C 532.867188 607.382812 532.652344 606.667969 532.503906 605.9375 C 532.359375 605.203125 532.285156 604.460938 532.285156 603.714844 C 532.285156 602.964844 532.359375 602.226562 532.503906 601.492188 C 532.652344 600.757812 532.867188 600.046875 533.152344 599.355469 C 533.4375 598.664062 533.789062 598.007812 534.207031 597.386719 C 534.621094 596.765625 535.09375 596.191406 535.621094 595.664062 C 536.148438 595.132812 536.726562 594.660156 537.347656 594.246094 C 537.96875 593.832031 538.625 593.480469 539.316406 593.195312 C 540.007812 592.90625 540.71875 592.691406 541.453125 592.546875 C 542.183594 592.398438 542.925781 592.328125 543.671875 592.328125 C 544.421875 592.328125 545.160156 592.398438 545.894531 592.546875 C 546.628906 592.691406 547.339844 592.90625 548.03125 593.195312 C 548.722656 593.480469 549.378906 593.832031 550 594.246094 C 550.621094 594.660156 551.195312 595.132812 551.726562 595.664062 C 552.253906 596.191406 552.726562 596.765625 553.140625 597.386719 C 553.554688 598.007812 553.90625 598.664062 554.191406 599.355469 C 554.480469 600.046875 554.695312 600.757812 554.839844 601.492188 C 554.988281 602.226562 555.058594 602.964844 555.058594 603.714844 C 555.058594 604.460938 554.988281 605.203125 554.839844 605.9375 C 554.695312 606.667969 554.480469 607.382812 554.191406 608.070312 C 553.90625 608.761719 553.554688 609.417969 553.140625 610.039062 C 552.726562 610.664062 552.253906 611.238281 551.726562 611.765625 C 551.195312 612.292969 550.621094 612.765625 550 613.183594 C 549.378906 613.597656 548.722656 613.949219 548.03125 614.234375 C 547.339844 614.519531 546.628906 614.738281 545.894531 614.882812 C 545.160156 615.027344 544.421875 615.101562 543.671875 615.101562 Z M 543.671875 615.101562 " fill-opacity="1" fill-rule="nonzero"/><path fill="#286291" d="M 661.152344 313.246094 C 660.402344 313.246094 659.664062 313.171875 658.929688 313.027344 C 658.195312 312.882812 657.484375 312.664062 656.792969 312.378906 C 656.101562 312.09375 655.445312 311.742188 654.824219 311.328125 C 654.203125 310.910156 653.628906 310.4375 653.101562 309.910156 C 652.570312 309.382812 652.097656 308.808594 651.683594 308.183594 C 651.269531 307.5625 650.917969 306.90625 650.632812 306.214844 C 650.34375 305.527344 650.128906 304.8125 649.984375 304.082031 C 649.835938 303.347656 649.765625 302.605469 649.765625 301.859375 C 649.765625 301.109375 649.835938 300.371094 649.984375 299.636719 C 650.128906 298.902344 650.34375 298.191406 650.632812 297.5 C 650.917969 296.808594 651.269531 296.152344 651.683594 295.53125 C 652.097656 294.910156 652.570312 294.335938 653.101562 293.808594 C 653.628906 293.277344 654.203125 292.804688 654.824219 292.390625 C 655.445312 291.976562 656.101562 291.625 656.792969 291.339844 C 657.484375 291.050781 658.195312 290.835938 658.929688 290.691406 C 659.664062 290.542969 660.402344 290.472656 661.152344 290.472656 C 661.898438 290.472656 662.640625 290.542969 663.371094 290.691406 C 664.105469 290.835938 664.820312 291.050781 665.507812 291.339844 C 666.199219 291.625 666.855469 291.976562 667.476562 292.390625 C 668.097656 292.804688 668.675781 293.277344 669.203125 293.808594 C 669.730469 294.335938 670.203125 294.910156 670.621094 295.53125 C 671.035156 296.152344 671.386719 296.808594 671.671875 297.5 C 671.957031 298.191406 672.175781 298.902344 672.320312 299.636719 C 672.464844 300.371094 672.539062 301.109375 672.539062 301.859375 C 672.539062 302.605469 672.464844 303.347656 672.320312 304.082031 C 672.175781 304.8125 671.957031 305.527344 671.671875 306.214844 C 671.386719 306.90625 671.035156 307.5625 670.621094 308.183594 C 670.203125 308.808594 669.730469 309.382812 669.203125 309.910156 C 668.675781 310.4375 668.097656 310.910156 667.476562 311.328125 C 666.855469 311.742188 666.199219 312.09375 665.507812 312.378906 C 664.820312 312.664062 664.105469 312.882812 663.375 313.027344 C 662.640625 313.171875 661.898438 313.246094 661.152344 313.246094 Z M 661.152344 313.246094 " fill-opacity="1" fill-rule="nonzero"/><g clip-path="url(#c741f20058)"><path fill="#286291" d="M 688.90625 935.511719 C 688.160156 935.511719 687.417969 935.4375 686.6875 935.292969 C 685.953125 935.144531 685.242188 934.929688 684.550781 934.644531 C 683.859375 934.359375 683.203125 934.007812 682.582031 933.59375 C 681.960938 933.175781 681.382812 932.703125 680.855469 932.175781 C 680.328125 931.648438 679.855469 931.070312 679.4375 930.449219 C 679.023438 929.828125 678.671875 929.171875 678.386719 928.480469 C 678.101562 927.789062 677.886719 927.078125 677.738281 926.34375 C 677.59375 925.613281 677.519531 924.871094 677.519531 924.125 C 677.519531 923.375 677.59375 922.636719 677.738281 921.902344 C 677.886719 921.167969 678.101562 920.457031 678.386719 919.765625 C 678.671875 919.074219 679.023438 918.417969 679.4375 917.796875 C 679.855469 917.175781 680.328125 916.601562 680.855469 916.074219 C 681.382812 915.542969 681.960938 915.070312 682.582031 914.65625 C 683.203125 914.242188 683.859375 913.890625 684.550781 913.605469 C 685.242188 913.316406 685.953125 913.101562 686.6875 912.957031 C 687.417969 912.808594 688.160156 912.738281 688.90625 912.738281 C 689.65625 912.738281 690.394531 912.808594 691.128906 912.957031 C 691.863281 913.101562 692.574219 913.316406 693.265625 913.605469 C 693.957031 913.890625 694.613281 914.242188 695.234375 914.65625 C 695.855469 915.070312 696.429688 915.542969 696.960938 916.074219 C 697.488281 916.601562 697.960938 917.175781 698.375 917.796875 C 698.789062 918.417969 699.140625 919.074219 699.425781 919.765625 C 699.714844 920.457031 699.929688 921.167969 700.074219 921.902344 C 700.222656 922.636719 700.292969 923.375 700.292969 924.125 C 700.292969 924.871094 700.222656 925.613281 700.074219 926.34375 C 699.929688 927.078125 699.714844 927.792969 699.425781 928.480469 C 699.140625 929.171875 698.789062 929.828125 698.375 930.449219 C 697.960938 931.070312 697.488281 931.648438 696.960938 932.175781 C 696.429688 932.703125 695.855469 933.175781 695.234375 933.59375 C 694.613281 934.007812 693.957031 934.359375 693.265625 934.644531 C 692.574219 934.929688 691.863281 935.144531 691.128906 935.292969 C 690.394531 935.4375 689.65625 935.511719 688.90625 935.511719 Z M 688.90625 935.511719 " fill-opacity="1" fill-rule="nonzero"/></g><path fill="#286291" d="M 567.871094 899.214844 C 567.121094 899.214844 566.382812 899.140625 565.648438 898.996094 C 564.914062 898.851562 564.203125 898.632812 563.511719 898.347656 C 562.820312 898.0625 562.164062 897.710938 561.542969 897.296875 C 560.921875 896.878906 560.347656 896.410156 559.820312 895.878906 C 559.289062 895.351562 558.816406 894.777344 558.402344 894.15625 C 557.988281 893.53125 557.636719 892.875 557.351562 892.1875 C 557.0625 891.496094 556.847656 890.78125 556.703125 890.050781 C 556.554688 889.316406 556.484375 888.574219 556.484375 887.828125 C 556.484375 887.082031 556.554688 886.339844 556.703125 885.605469 C 556.847656 884.875 557.0625 884.160156 557.351562 883.46875 C 557.636719 882.78125 557.988281 882.125 558.402344 881.503906 C 558.816406 880.878906 559.289062 880.304688 559.820312 879.777344 C 560.347656 879.246094 560.921875 878.777344 561.542969 878.359375 C 562.164062 877.945312 562.820312 877.59375 563.511719 877.308594 C 564.203125 877.023438 564.914062 876.804688 565.648438 876.660156 C 566.382812 876.515625 567.121094 876.441406 567.871094 876.441406 C 568.617188 876.441406 569.359375 876.515625 570.089844 876.660156 C 570.824219 876.804688 571.535156 877.023438 572.226562 877.308594 C 572.917969 877.59375 573.574219 877.945312 574.195312 878.359375 C 574.816406 878.777344 575.394531 879.246094 575.921875 879.777344 C 576.449219 880.304688 576.921875 880.878906 577.339844 881.503906 C 577.753906 882.125 578.105469 882.78125 578.390625 883.472656 C 578.675781 884.160156 578.890625 884.875 579.039062 885.605469 C 579.183594 886.339844 579.257812 887.082031 579.257812 887.828125 C 579.257812 888.574219 579.183594 889.316406 579.039062 890.050781 C 578.890625 890.78125 578.675781 891.496094 578.390625 892.1875 C 578.105469 892.875 577.753906 893.53125 577.339844 894.15625 C 576.921875 894.777344 576.449219 895.351562 575.921875 895.878906 C 575.394531 896.410156 574.816406 896.878906 574.195312 897.296875 C 573.574219 897.710938 572.917969 898.0625 572.226562 898.347656 C 571.539062 898.632812 570.824219 898.851562 570.089844 898.996094 C 569.359375 899.140625 568.617188 899.214844 567.871094 899.214844 Z M 567.871094 899.214844 " fill-opacity="1" fill-rule="nonzero"/><path fill="#286291" d="M 759.617188 841.519531 C 758.871094 841.519531 758.128906 841.445312 757.398438 841.300781 C 756.664062 841.152344 755.953125 840.9375 755.261719 840.652344 C 754.570312 840.363281 753.914062 840.015625 753.292969 839.597656 C 752.671875 839.183594 752.09375 838.710938 751.566406 838.183594 C 751.039062 837.652344 750.566406 837.078125 750.148438 836.457031 C 749.734375 835.835938 749.382812 835.179688 749.097656 834.488281 C 748.8125 833.796875 748.597656 833.085938 748.449219 832.351562 C 748.304688 831.621094 748.230469 830.878906 748.230469 830.132812 C 748.230469 829.382812 748.304688 828.644531 748.449219 827.910156 C 748.597656 827.175781 748.8125 826.464844 749.097656 825.773438 C 749.382812 825.082031 749.734375 824.425781 750.148438 823.804688 C 750.566406 823.183594 751.039062 822.609375 751.566406 822.078125 C 752.09375 821.550781 752.671875 821.078125 753.292969 820.664062 C 753.914062 820.246094 754.570312 819.898438 755.261719 819.609375 C 755.953125 819.324219 756.664062 819.109375 757.398438 818.964844 C 758.128906 818.816406 758.871094 818.746094 759.617188 818.746094 C 760.367188 818.746094 761.105469 818.816406 761.839844 818.964844 C 762.574219 819.109375 763.285156 819.324219 763.976562 819.609375 C 764.667969 819.898438 765.324219 820.246094 765.945312 820.664062 C 766.566406 821.078125 767.140625 821.550781 767.667969 822.078125 C 768.199219 822.609375 768.671875 823.183594 769.085938 823.804688 C 769.5 824.425781 769.851562 825.082031 770.136719 825.773438 C 770.425781 826.464844 770.640625 827.175781 770.785156 827.910156 C 770.933594 828.644531 771.003906 829.382812 771.003906 830.132812 C 771.003906 830.878906 770.933594 831.621094 770.785156 832.351562 C 770.640625 833.085938 770.425781 833.796875 770.136719 834.488281 C 769.851562 835.179688 769.5 835.835938 769.085938 836.457031 C 768.671875 837.078125 768.199219 837.652344 767.667969 838.183594 C 767.140625 838.710938 766.566406 839.183594 765.945312 839.597656 C 765.324219 840.015625 764.667969 840.363281 763.976562 840.652344 C 763.285156 840.9375 762.574219 841.152344 761.839844 841.300781 C 761.105469 841.445312 760.367188 841.519531 759.617188 841.519531 Z M 759.617188 841.519531 " fill-opacity="1" fill-rule="nonzero"/><path fill="#286291" d="M 274.554688 72.238281 C 273.808594 72.238281 273.066406 72.167969 272.332031 72.019531 C 271.601562 71.875 270.886719 71.660156 270.199219 71.371094 C 269.507812 71.085938 268.851562 70.734375 268.230469 70.320312 C 267.605469 69.90625 267.03125 69.433594 266.503906 68.902344 C 265.976562 68.375 265.503906 67.800781 265.085938 67.179688 C 264.671875 66.558594 264.320312 65.902344 264.035156 65.210938 C 263.75 64.519531 263.53125 63.808594 263.386719 63.074219 C 263.242188 62.339844 263.167969 61.601562 263.167969 60.851562 C 263.167969 60.105469 263.242188 59.363281 263.386719 58.632812 C 263.53125 57.898438 263.75 57.1875 264.035156 56.496094 C 264.320312 55.804688 264.671875 55.148438 265.085938 54.527344 C 265.503906 53.90625 265.976562 53.328125 266.503906 52.800781 C 267.03125 52.273438 267.605469 51.800781 268.230469 51.382812 C 268.851562 50.96875 269.507812 50.617188 270.199219 50.332031 C 270.886719 50.046875 271.601562 49.832031 272.332031 49.683594 C 273.066406 49.539062 273.808594 49.464844 274.554688 49.464844 C 275.300781 49.464844 276.042969 49.539062 276.777344 49.683594 C 277.511719 49.832031 278.222656 50.046875 278.914062 50.332031 C 279.601562 50.617188 280.257812 50.96875 280.882812 51.382812 C 281.503906 51.800781 282.078125 52.273438 282.605469 52.800781 C 283.136719 53.328125 283.609375 53.90625 284.023438 54.527344 C 284.4375 55.148438 284.789062 55.804688 285.074219 56.496094 C 285.363281 57.1875 285.578125 57.898438 285.722656 58.632812 C 285.867188 59.363281 285.941406 60.105469 285.941406 60.851562 C 285.941406 61.601562 285.867188 62.339844 285.722656 63.074219 C 285.578125 63.808594 285.363281 64.519531 285.074219 65.210938 C 284.789062 65.902344 284.4375 66.558594 284.023438 67.179688 C 283.609375 67.800781 283.136719 68.375 282.605469 68.902344 C 282.078125 69.433594 281.503906 69.90625 280.882812 70.320312 C 280.257812 70.734375 279.601562 71.085938 278.914062 71.371094 C 278.222656 71.660156 277.511719 71.875 276.777344 72.019531 C 276.042969 72.167969 275.300781 72.238281 274.554688 72.238281 Z M 274.554688 72.238281 " fill-opacity="1" fill-rule="nonzero"/><path fill="#286291" d="M 531.574219 67.257812 C 530.828125 67.257812 530.085938 67.183594 529.351562 67.039062 C 528.621094 66.894531 527.90625 66.675781 527.21875 66.390625 C 526.527344 66.105469 525.871094 65.753906 525.25 65.339844 C 524.625 64.921875 524.050781 64.449219 523.523438 63.921875 C 522.992188 63.394531 522.523438 62.820312 522.105469 62.195312 C 521.691406 61.574219 521.339844 60.917969 521.054688 60.226562 C 520.769531 59.539062 520.550781 58.824219 520.40625 58.09375 C 520.261719 57.359375 520.1875 56.617188 520.1875 55.871094 C 520.1875 55.121094 520.261719 54.382812 520.40625 53.648438 C 520.550781 52.914062 520.769531 52.203125 521.054688 51.511719 C 521.339844 50.824219 521.691406 50.167969 522.105469 49.542969 C 522.523438 48.921875 522.992188 48.347656 523.523438 47.820312 C 524.050781 47.289062 524.625 46.816406 525.25 46.402344 C 525.871094 45.988281 526.527344 45.636719 527.21875 45.351562 C 527.90625 45.0625 528.621094 44.847656 529.351562 44.703125 C 530.085938 44.558594 530.828125 44.484375 531.574219 44.484375 C 532.320312 44.484375 533.0625 44.558594 533.796875 44.703125 C 534.527344 44.847656 535.242188 45.0625 535.933594 45.351562 C 536.621094 45.636719 537.277344 45.988281 537.902344 46.402344 C 538.523438 46.816406 539.097656 47.289062 539.625 47.820312 C 540.15625 48.347656 540.625 48.921875 541.042969 49.542969 C 541.457031 50.167969 541.808594 50.824219 542.09375 51.511719 C 542.378906 52.203125 542.597656 52.914062 542.742188 53.648438 C 542.886719 54.382812 542.960938 55.121094 542.960938 55.871094 C 542.960938 56.617188 542.886719 57.359375 542.742188 58.09375 C 542.597656 58.824219 542.378906 59.539062 542.09375 60.226562 C 541.808594 60.917969 541.457031 61.574219 541.042969 62.195312 C 540.625 62.820312 540.15625 63.394531 539.625 63.921875 C 539.097656 64.449219 538.523438 64.921875 537.902344 65.339844 C 537.277344 65.753906 536.621094 66.105469 535.933594 66.390625 C 535.242188 66.675781 534.527344 66.894531 533.796875 67.039062 C 533.0625 67.183594 532.320312 67.257812 531.574219 67.257812 Z M 531.574219 67.257812 " fill-opacity="1" fill-rule="nonzero"/><path fill="#286291" d="M 88.5 371.402344 L 193.523438 266.324219 L 269.472656 266.324219 L 301.496094 302.621094 L 409.265625 302.621094 L 481.453125 230.4375 L 483.382812 232.367188 L 410.386719 305.367188 L 300.277344 305.367188 L 268.25 269.070312 L 194.644531 269.070312 L 90.382812 373.332031 Z M 88.5 371.402344 " fill-opacity="1" fill-rule="nonzero"/><path fill="#286291" d="M 566.496094 887.828125 L 566.496094 817.929688 L 649.105469 774.519531 L 649.105469 585.109375 L 600.660156 540.984375 L 600.660156 360.421875 L 660.1875 300.894531 L 662.117188 302.824219 L 603.402344 361.539062 L 603.402344 539.765625 L 651.796875 583.890625 L 651.796875 776.144531 L 569.242188 819.558594 L 569.242188 887.828125 Z M 566.496094 887.828125 " fill-opacity="1" fill-rule="nonzero"/><g clip-path="url(#0496f61d51)"><g clip-path="url(#636addfc81)"><g transform="matrix(1, 0, 0, 1, 452, 660)"><g clip-path="url(#f2a8aec89e)"><g clip-path="url(#de6db98cd1)"><g clip-path="url(#99a8662fa4)"><path fill="#edaf00" d="M 0.386719 0.453125 L 23.636719 0.453125 L 23.636719 23.703125 L 0.386719 23.703125 Z M 0.386719 0.453125 " fill-opacity="1" fill-rule="nonzero"/></g></g></g></g></g></g></svg>